<svg width="300" height="300" viewBox="0 0 300 300" fill="none" xmlns="http://www.w3.org/2000/svg">
<g clip-path="url(#clip0)">
<path d="M295.308 61.7417C291.284 56.7625 285.302 53.9072 278.899 53.9072H50.2362L48.1942 39.2729C46.7482 28.9101 37.767 21.0949 27.3028 21.0949H9.37495C4.19763 21.0949 0 25.2925 0 30.4699C0 35.6472 4.19763 39.8448 9.37495 39.8448H27.3028C28.4653 39.8448 29.4637 40.7132 29.6237 41.8645L54.9296 223.228C56.3756 233.592 65.3568 241.406 75.821 241.406H85.9864C84.9458 244.34 84.3739 247.495 84.3739 250.781C84.3739 266.289 96.9908 278.906 112.499 278.906C128.007 278.906 140.624 266.289 140.624 250.781C140.624 247.495 140.052 244.34 139.011 241.406H189.111C188.07 244.34 187.498 247.495 187.498 250.781C187.498 266.289 200.115 278.906 215.623 278.906C231.131 278.906 243.748 266.289 243.748 250.781C243.748 247.495 243.176 244.34 242.136 241.406H262.498C267.676 241.406 271.873 237.208 271.873 232.031C271.873 226.854 267.676 222.656 262.498 222.656H75.8216C74.6591 222.656 73.6607 221.788 73.5007 220.636L71.1664 203.906H255.795C265.673 203.906 274.348 196.896 276.423 187.232L299.526 79.4217C300.868 73.1634 299.331 66.7192 295.308 61.7417ZM121.874 250.781C121.874 255.95 117.668 260.156 112.499 260.156C107.33 260.156 103.124 255.95 103.124 250.781C103.124 245.612 107.33 241.406 112.499 241.406C117.668 241.406 121.874 245.611 121.874 250.781ZM224.999 250.781C224.999 255.95 220.793 260.156 215.624 260.156C210.455 260.156 206.249 255.95 206.249 250.781C206.249 245.612 210.455 241.406 215.624 241.406C220.793 241.406 224.999 245.611 224.999 250.781ZM281.193 75.4913L258.09 183.299C257.86 184.375 256.894 185.156 255.795 185.156H68.5496L52.8524 72.6565H278.899C279.826 72.6565 280.404 73.13 280.725 73.5272C281.046 73.9239 281.387 74.5866 281.193 75.4913Z" fill="url(#paint0_linear)"/>
</g>
<defs>
<linearGradient id="paint0_linear" x1="166.406" y1="12.0117" x2="173.145" y2="278.906" gradientUnits="userSpaceOnUse">
<stop stop-color="#73F5B7"/>
<stop offset="1" stop-color="#0391DA"/>
</linearGradient>
<clipPath id="clip0">
<rect width="300" height="300" fill="white"/>
</clipPath>
</defs>
</svg>
