<svg width="300" height="300" viewBox="0 0 300 300" fill="none" xmlns="http://www.w3.org/2000/svg">
<path d="M150 283.31C145.729 283.31 141.611 281.763 138.402 278.952C126.283 268.355 114.599 258.396 104.29 249.612L104.237 249.566C74.0134 223.81 47.914 201.567 29.7546 179.656C9.45509 155.161 0 131.937 0 106.565C0 81.9145 8.45259 59.1728 23.7991 42.5262C39.3287 25.6828 60.6375 16.4062 83.8072 16.4062C101.124 16.4062 116.984 21.8811 130.943 32.6775C137.988 38.1271 144.374 44.7968 150 52.5764C155.628 44.7968 162.011 38.1271 169.059 32.6775C183.018 21.8811 198.877 16.4062 216.194 16.4062C239.362 16.4062 260.673 25.6828 276.203 42.5262C291.549 59.1728 299.999 81.9145 299.999 106.565C299.999 131.937 290.547 155.161 270.247 179.654C252.088 201.567 225.991 223.808 195.771 249.561C185.444 258.36 173.742 268.334 161.595 278.957C158.388 281.763 154.268 283.31 150 283.31V283.31ZM83.8072 33.9798C65.6043 33.9798 48.8822 41.2445 36.7172 54.4373C24.3713 67.8291 17.5712 86.3411 17.5712 106.565C17.5712 127.904 25.502 146.988 43.2838 168.443C60.4705 189.182 86.0342 210.967 115.633 236.192L115.688 236.238C126.036 245.057 137.766 255.054 149.975 265.73C162.256 255.034 174.005 245.02 184.373 236.188C213.97 210.963 239.531 189.182 256.718 168.443C274.497 146.988 282.428 127.904 282.428 106.565C282.428 86.3411 275.628 67.8291 263.282 54.4373C251.12 41.2445 234.395 33.9798 216.194 33.9798C202.86 33.9798 190.617 38.2187 179.807 46.5775C170.173 54.0298 163.463 63.4506 159.528 70.0424C157.505 73.4322 153.943 75.4555 150 75.4555C146.056 75.4555 142.495 73.4322 140.471 70.0424C136.539 63.4506 129.828 54.0298 120.192 46.5775C109.382 38.2187 97.1396 33.9798 83.8072 33.9798V33.9798Z" fill="#4B4B4B"/>
</svg>
