<svg width="512" height="512" viewBox="0 0 512 512" fill="none" xmlns="http://www.w3.org/2000/svg">
<g clip-path="url(#clip0)">
<path d="M503.992 105.373C497.124 96.8746 486.916 92.0017 475.988 92.0017H85.7365L82.2515 67.0258C79.7835 49.3399 64.4556 36.002 46.5967 36.002H15.9999C7.16396 36.002 0 43.166 0 52.0019C0 60.8379 7.16396 68.0018 15.9999 68.0018H46.5967C48.5807 68.0018 50.2847 69.4838 50.5577 71.4488L93.7465 380.976C96.2144 398.663 111.542 412 129.401 412H146.75C144.974 417.008 143.998 422.391 143.998 428C143.998 454.467 165.531 475.999 191.998 475.999C218.465 475.999 239.998 454.467 239.998 428C239.998 422.391 239.022 417.008 237.246 412H322.749C320.973 417.008 319.997 422.391 319.997 428C319.997 454.467 341.53 475.999 367.997 475.999C394.464 475.999 415.997 454.467 415.997 428C415.997 422.391 415.021 417.008 413.245 412H447.997C456.833 412 463.997 404.836 463.997 396C463.997 387.164 456.833 380 447.997 380H129.402C127.418 380 125.714 378.518 125.441 376.553L121.457 348H436.557C453.415 348 468.22 336.035 471.762 319.542L511.191 135.546C513.482 124.865 510.858 113.868 503.992 105.373ZM207.999 428C207.999 436.822 200.821 444 191.999 444C183.177 444 175.999 436.822 175.999 428C175.999 419.178 183.177 412 191.999 412C200.821 412 207.999 419.177 207.999 428ZM383.998 428C383.998 436.822 376.82 444 367.998 444C359.176 444 351.998 436.822 351.998 428C351.998 419.178 359.176 412 367.998 412C376.82 412 383.998 419.177 383.998 428ZM479.902 128.838L440.474 312.83C440.08 314.666 438.432 315.999 436.557 315.999H116.991L90.2015 124H475.987C477.57 124 478.556 124.808 479.104 125.486C479.651 126.163 480.233 127.294 479.902 128.838Z" fill="url(#paint0_linear)"/>
</g>
<defs>
<linearGradient id="paint0_linear" x1="284" y1="20.5" x2="295.5" y2="476" gradientUnits="userSpaceOnUse">
<stop stop-color="#73F5B7"/>
<stop offset="1" stop-color="#6EB7B2"/>
</linearGradient>
<clipPath id="clip0">
<rect width="512" height="512" fill="white"/>
</clipPath>
</defs>
</svg>
