<svg width="40" height="40" viewBox="0 0 40 40" fill="none" xmlns="http://www.w3.org/2000/svg">
<g clip-path="url(#clip0)">
<path d="M2.50001 2.72191C-0.643327 5.98691 6.57886e-06 9.45524 6.57886e-06 19.9919C6.57886e-06 28.7419 -1.52666 37.5136 6.46334 39.5786C8.95834 40.2202 31.065 40.2202 33.5567 39.5752C36.8833 38.7169 39.59 36.0186 39.96 31.3136C40.0117 30.6569 40.0117 9.33857 39.9583 8.66857C39.565 3.65691 36.48 0.768573 32.415 0.183573C31.4833 0.0485734 31.2967 0.00857341 26.5167 0.00024008C9.56167 0.00857341 5.84501 -0.746427 2.50001 2.72191Z" fill="url(#paint0_linear)"/>
<path d="M19.9967 5.23178C13.945 5.23178 8.19835 4.69345 6.00335 10.3268C5.09668 12.6535 5.22835 15.6751 5.22835 20.0018C5.22835 23.7985 5.10668 27.3668 6.00335 29.6751C8.19335 35.3118 13.9867 34.7718 19.9934 34.7718C25.7884 34.7718 31.7634 35.3751 33.985 29.6751C34.8934 27.3251 34.76 24.3485 34.76 20.0018C34.76 14.2318 35.0784 10.5068 32.28 7.71012C29.4467 4.87678 25.615 5.23178 19.99 5.23178H19.9967ZM18.6734 7.89345C31.2967 7.87345 32.9034 6.47012 32.0167 25.9651C31.7017 32.8601 26.4517 32.1035 19.9984 32.1035C8.23168 32.1035 7.89335 31.7668 7.89335 19.9951C7.89335 8.08678 8.82668 7.90012 18.6734 7.89012V7.89345ZM27.88 10.3451C26.9017 10.3451 26.1084 11.1385 26.1084 12.1168C26.1084 13.0951 26.9017 13.8885 27.88 13.8885C28.8584 13.8885 29.6517 13.0951 29.6517 12.1168C29.6517 11.1385 28.8584 10.3451 27.88 10.3451ZM19.9967 12.4168C15.8084 12.4168 12.4134 15.8135 12.4134 20.0018C12.4134 24.1901 15.8084 27.5851 19.9967 27.5851C24.185 27.5851 27.5784 24.1901 27.5784 20.0018C27.5784 15.8135 24.185 12.4168 19.9967 12.4168ZM19.9967 15.0785C26.505 15.0785 26.5134 24.9251 19.9967 24.9251C13.49 24.9251 13.48 15.0785 19.9967 15.0785Z" fill="white"/>
</g>
<defs>
<linearGradient id="paint0_linear" x1="2.57671" y1="37.4454" x2="39.7525" y2="5.2702" gradientUnits="userSpaceOnUse">
<stop stop-color="#FFDD55"/>
<stop offset="0.5" stop-color="#FF543E"/>
<stop offset="1" stop-color="#C837AB"/>
</linearGradient>
<clipPath id="clip0">
<rect width="40" height="40" fill="white"/>
</clipPath>
</defs>
</svg>
