<svg width="365" height="70" viewBox="0 0 365 70" fill="none" xmlns="http://www.w3.org/2000/svg">
<path d="M69.2129 46.0684H52.6895L49.2324 56H41.5273L57.6406 13.3438H64.291L80.4336 56H72.6992L69.2129 46.0684ZM54.7695 40.0918H67.1328L60.9512 22.3965L54.7695 40.0918ZM97.9062 13.3438L110.211 46.0391L122.486 13.3438H132.066V56H124.684V41.9375L125.416 23.1289L112.818 56H107.516L94.9473 23.1582L95.6797 41.9375V56H88.2969V13.3438H97.9062ZM168.787 36.957H151.268V50.082H171.746V56H143.855V13.3438H171.541V19.3203H151.268V31.0977H168.787V36.957ZM205.361 37.9238H188.193V56H180.781V13.3438H207.881V19.3203H188.193V32.0059H205.361V37.9238ZM268.326 39.5645H260.064V56H252.652V13.3438H267.652C272.574 13.3438 276.373 14.4473 279.049 16.6543C281.725 18.8613 283.062 22.0547 283.062 26.2344C283.062 29.0859 282.369 31.4785 280.982 33.4121C279.615 35.3262 277.701 36.8008 275.24 37.8359L284.82 55.6191V56H276.881L268.326 39.5645ZM260.064 33.6172H267.682C270.182 33.6172 272.135 32.9922 273.541 31.7422C274.947 30.4727 275.65 28.7441 275.65 26.5566C275.65 24.2715 274.996 22.5039 273.688 21.2539C272.398 20.0039 270.465 19.3594 267.887 19.3203H260.064V33.6172ZM325.643 42.1133C325.213 46.6641 323.533 50.2188 320.604 52.7773C317.674 55.3164 313.777 56.5859 308.914 56.5859C305.516 56.5859 302.518 55.7852 299.92 54.1836C297.342 52.5625 295.35 50.2676 293.943 47.2988C292.537 44.3301 291.805 40.8828 291.746 36.957V32.9727C291.746 28.9492 292.459 25.4043 293.885 22.3379C295.311 19.2715 297.352 16.9082 300.008 15.248C302.684 13.5879 305.77 12.7578 309.266 12.7578C313.973 12.7578 317.762 14.0371 320.633 16.5957C323.504 19.1543 325.174 22.7676 325.643 27.4355H318.26C317.908 24.3691 317.01 22.1621 315.564 20.8145C314.139 19.4473 312.039 18.7637 309.266 18.7637C306.043 18.7637 303.562 19.9453 301.824 22.3086C300.105 24.6523 299.227 28.0996 299.188 32.6504V36.4297C299.188 41.0391 300.008 44.5547 301.648 46.9766C303.309 49.3984 305.73 50.6094 308.914 50.6094C311.824 50.6094 314.012 49.9551 315.477 48.6465C316.941 47.3379 317.869 45.1602 318.26 42.1133H325.643ZM360.225 36.957H342.705V50.082H363.184V56H335.293V13.3438H362.979V19.3203H342.705V31.0977H360.225V36.957Z" fill="#73F5B7"/>
<path d="M37.0312 50.4629C35.4883 52.4746 33.3496 53.998 30.6152 55.0332C27.8809 56.0684 24.7754 56.5859 21.2988 56.5859C17.7246 56.5859 14.5605 55.7754 11.8066 54.1543C9.05273 52.5332 6.92383 50.2188 5.41992 47.2109C3.93555 44.1836 3.16406 40.6582 3.10547 36.6348V33.2949C3.10547 26.8496 4.64844 21.8203 7.73438 18.207C10.8203 14.5742 15.127 12.7578 20.6543 12.7578C25.4004 12.7578 29.1699 13.9297 31.9629 16.2734C34.7559 18.6172 36.4355 21.9961 37.002 26.4102H29.7363C28.916 21.2734 25.9375 18.7051 20.8008 18.7051C17.4805 18.7051 14.9512 19.9062 13.2129 22.3086C11.4941 24.6914 10.6055 28.1973 10.5469 32.8262V36.1074C10.5469 40.7168 11.5137 44.3008 13.4473 46.8594C15.4004 49.3984 18.1055 50.668 21.5625 50.668C25.3516 50.668 28.0469 49.8086 29.6484 48.0898V39.7402H20.8594V34.1152H37.0312V50.4629Z" fill="url(#paint0_linear)"/>
<path d="M247.379 35.7852C247.379 39.9648 246.656 43.6367 245.211 46.8008C243.766 49.9453 241.695 52.3672 239 54.0664C236.324 55.7461 233.238 56.5859 229.742 56.5859C226.285 56.5859 223.199 55.7461 220.484 54.0664C217.789 52.3672 215.699 49.9551 214.215 46.8301C212.75 43.7051 212.008 40.1016 211.988 36.0195V33.6172C211.988 29.457 212.721 25.7852 214.186 22.6016C215.67 19.418 217.75 16.9863 220.426 15.3066C223.121 13.6074 226.207 12.7578 229.684 12.7578C233.16 12.7578 236.236 13.5977 238.912 15.2773C241.607 16.9375 243.688 19.3398 245.152 22.4844C246.617 25.6094 247.359 29.252 247.379 33.4121V35.7852ZM239.967 33.5586C239.967 28.832 239.068 25.209 237.271 22.6895C235.494 20.1699 232.965 18.9102 229.684 18.9102C226.48 18.9102 223.971 20.1699 222.154 22.6895C220.357 25.1895 219.439 28.7344 219.4 33.3242V35.7852C219.4 40.4727 220.309 44.0957 222.125 46.6543C223.961 49.2129 226.5 50.4922 229.742 50.4922C233.023 50.4922 235.543 49.2422 237.301 46.7422C239.078 44.2422 239.967 40.5898 239.967 35.7852V33.5586Z" fill="url(#paint1_linear)"/>
<defs>
<linearGradient id="paint0_linear" x1="20.5" y1="0" x2="20.5" y2="70" gradientUnits="userSpaceOnUse">
<stop stop-color="#5CC4FF"/>
<stop offset="1" stop-color="#73F5B7"/>
</linearGradient>
<linearGradient id="paint1_linear" x1="230" y1="0" x2="230" y2="70" gradientUnits="userSpaceOnUse">
<stop stop-color="#73F5B7"/>
<stop offset="1" stop-color="#5CC4FF"/>
</linearGradient>
</defs>
</svg>
