<svg width="365" height="175" viewBox="0 0 365 175" fill="none" xmlns="http://www.w3.org/2000/svg">
<path d="M238.221 64.6709C238.221 72.3695 236.86 79.1191 234.139 84.9199C231.417 90.7207 227.514 95.1966 222.43 98.3477C217.381 101.499 211.58 103.074 205.027 103.074C198.546 103.074 192.763 101.517 187.679 98.4014C182.594 95.2861 178.655 90.846 175.862 85.0811C173.069 79.2803 171.655 72.6201 171.619 65.1006V61.2334C171.619 53.5348 172.998 46.7673 175.755 40.9307C178.548 35.0583 182.469 30.5645 187.518 27.4492C192.602 24.2982 198.403 22.7227 204.92 22.7227C211.437 22.7227 217.22 24.2982 222.269 27.4492C227.353 30.5645 231.274 35.0583 234.031 40.9307C236.824 46.7673 238.221 53.5169 238.221 61.1797V64.6709ZM221.893 61.126C221.893 52.9261 220.424 46.6956 217.488 42.4346C214.552 38.1735 210.363 36.043 204.92 36.043C199.513 36.043 195.341 38.1556 192.405 42.3809C189.469 46.5703 187.983 52.7292 187.947 60.8574V64.6709C187.947 72.6559 189.415 78.8506 192.352 83.2549C195.288 87.6592 199.513 89.8613 205.027 89.8613C210.434 89.8613 214.588 87.7487 217.488 83.5234C220.389 79.2624 221.857 73.0677 221.893 64.9395V61.126Z" fill="url(#paint0_linear)"/>
<path d="M187.741 71.8009C187.398 80.0572 192.813 95.0763 217.222 89.1023C241.63 83.1283 240.699 45.5553 237.182 27.5155C238.586 31.0544 241.447 41.1077 241.659 53.0105C241.924 67.8888 237.714 85.7795 229.82 94.3032C221.926 102.827 201.374 109.247 185.559 99.0264C176.524 92.0955 172.898 86.6967 171.736 71.492L187.741 71.8009Z" fill="url(#paint1_linear)"/>
<path d="M188.025 92.1172C185.125 95.5905 181.025 98.2939 175.726 100.228C170.426 102.125 164.554 103.074 158.108 103.074C151.341 103.074 145.397 101.606 140.276 98.6699C135.192 95.6979 131.253 91.401 128.46 85.7793C125.703 80.1576 124.288 73.5511 124.217 65.96V60.6426C124.217 52.8366 125.524 46.0869 128.138 40.3936C130.787 34.6644 134.583 30.2959 139.524 27.2881C144.502 24.2445 150.32 22.7227 156.981 22.7227C166.255 22.7227 173.506 24.9427 178.733 29.3828C183.961 33.7871 187.059 40.2145 188.025 48.665H172.342C171.626 44.1891 170.032 40.9128 167.562 38.8359C165.127 36.7591 161.761 35.7207 157.464 35.7207C151.985 35.7207 147.814 37.7796 144.949 41.8975C142.085 46.0153 140.635 52.1383 140.599 60.2666V65.2617C140.599 73.4616 142.156 79.6562 145.272 83.8457C148.387 88.0352 152.952 90.1299 158.968 90.1299C165.019 90.1299 169.334 88.8408 171.912 86.2627V72.7812H157.249V60.9111H188.025V92.1172Z" fill="url(#paint2_linear)"/>
<path d="M172.527 48.5957C172.71 41.7639 167.014 29.4327 142.757 34.7619C118.501 40.0911 120.155 71.1415 124.014 86.0006C122.544 83.0971 119.494 74.8307 119.053 64.9929C118.501 52.6958 122.36 37.8366 130.078 30.6631C137.795 23.4896 158.193 17.853 174.18 26.0508C183.335 31.637 187.06 36.0428 188.514 48.5954L172.527 48.5957Z" fill="url(#paint3_linear)"/>
<path d="M69.2129 151.068H52.6895L49.2324 161H41.5273L57.6406 118.344H64.291L80.4336 161H72.6992L69.2129 151.068ZM54.7695 145.092H67.1328L60.9512 127.396L54.7695 145.092ZM97.9062 118.344L110.211 151.039L122.486 118.344H132.066V161H124.684V146.938L125.416 128.129L112.818 161H107.516L94.9473 128.158L95.6797 146.938V161H88.2969V118.344H97.9062ZM168.787 141.957H151.268V155.082H171.746V161H143.855V118.344H171.541V124.32H151.268V136.098H168.787V141.957ZM205.361 142.924H188.193V161H180.781V118.344H207.881V124.32H188.193V137.006H205.361V142.924ZM268.326 144.564H260.064V161H252.652V118.344H267.652C272.574 118.344 276.373 119.447 279.049 121.654C281.725 123.861 283.062 127.055 283.062 131.234C283.062 134.086 282.369 136.479 280.982 138.412C279.615 140.326 277.701 141.801 275.24 142.836L284.82 160.619V161H276.881L268.326 144.564ZM260.064 138.617H267.682C270.182 138.617 272.135 137.992 273.541 136.742C274.947 135.473 275.65 133.744 275.65 131.557C275.65 129.271 274.996 127.504 273.688 126.254C272.398 125.004 270.465 124.359 267.887 124.32H260.064V138.617ZM325.643 147.113C325.213 151.664 323.533 155.219 320.604 157.777C317.674 160.316 313.777 161.586 308.914 161.586C305.516 161.586 302.518 160.785 299.92 159.184C297.342 157.562 295.35 155.268 293.943 152.299C292.537 149.33 291.805 145.883 291.746 141.957V137.973C291.746 133.949 292.459 130.404 293.885 127.338C295.311 124.271 297.352 121.908 300.008 120.248C302.684 118.588 305.77 117.758 309.266 117.758C313.973 117.758 317.762 119.037 320.633 121.596C323.504 124.154 325.174 127.768 325.643 132.436H318.26C317.908 129.369 317.01 127.162 315.564 125.814C314.139 124.447 312.039 123.764 309.266 123.764C306.043 123.764 303.562 124.945 301.824 127.309C300.105 129.652 299.227 133.1 299.188 137.65V141.43C299.188 146.039 300.008 149.555 301.648 151.977C303.309 154.398 305.73 155.609 308.914 155.609C311.824 155.609 314.012 154.955 315.477 153.646C316.941 152.338 317.869 150.16 318.26 147.113H325.643ZM360.225 141.957H342.705V155.082H363.184V161H335.293V118.344H362.979V124.32H342.705V136.098H360.225V141.957Z" fill="#73F5B7"/>
<path d="M37.0312 155.463C35.4883 157.475 33.3496 158.998 30.6152 160.033C27.8809 161.068 24.7754 161.586 21.2988 161.586C17.7246 161.586 14.5605 160.775 11.8066 159.154C9.05273 157.533 6.92383 155.219 5.41992 152.211C3.93555 149.184 3.16406 145.658 3.10547 141.635V138.295C3.10547 131.85 4.64844 126.82 7.73438 123.207C10.8203 119.574 15.127 117.758 20.6543 117.758C25.4004 117.758 29.1699 118.93 31.9629 121.273C34.7559 123.617 36.4355 126.996 37.002 131.41H29.7363C28.916 126.273 25.9375 123.705 20.8008 123.705C17.4805 123.705 14.9512 124.906 13.2129 127.309C11.4941 129.691 10.6055 133.197 10.5469 137.826V141.107C10.5469 145.717 11.5137 149.301 13.4473 151.859C15.4004 154.398 18.1055 155.668 21.5625 155.668C25.3516 155.668 28.0469 154.809 29.6484 153.09V144.74H20.8594V139.115H37.0312V155.463Z" fill="url(#paint4_linear)"/>
<path d="M247.379 140.785C247.379 144.965 246.656 148.637 245.211 151.801C243.766 154.945 241.695 157.367 239 159.066C236.324 160.746 233.238 161.586 229.742 161.586C226.285 161.586 223.199 160.746 220.484 159.066C217.789 157.367 215.699 154.955 214.215 151.83C212.75 148.705 212.008 145.102 211.988 141.02V138.617C211.988 134.457 212.721 130.785 214.186 127.602C215.67 124.418 217.75 121.986 220.426 120.307C223.121 118.607 226.207 117.758 229.684 117.758C233.16 117.758 236.236 118.598 238.912 120.277C241.607 121.938 243.688 124.34 245.152 127.484C246.617 130.609 247.359 134.252 247.379 138.412V140.785ZM239.967 138.559C239.967 133.832 239.068 130.209 237.271 127.689C235.494 125.17 232.965 123.91 229.684 123.91C226.48 123.91 223.971 125.17 222.154 127.689C220.357 130.189 219.439 133.734 219.4 138.324V140.785C219.4 145.473 220.309 149.096 222.125 151.654C223.961 154.213 226.5 155.492 229.742 155.492C233.023 155.492 235.543 154.242 237.301 151.742C239.078 149.242 239.967 145.59 239.967 140.785V138.559Z" fill="url(#paint5_linear)"/>
<defs>
<linearGradient id="paint0_linear" x1="207" y1="23" x2="207" y2="103.5" gradientUnits="userSpaceOnUse">
<stop stop-color="#73F5B7"/>
<stop offset="1" stop-color="#72D5E1"/>
</linearGradient>
<linearGradient id="paint1_linear" x1="240.257" y1="45.7178" x2="141.592" y2="112.028" gradientUnits="userSpaceOnUse">
<stop stop-color="#5CC4FF"/>
<stop offset="1" stop-color="#73F5B7"/>
</linearGradient>
<linearGradient id="paint2_linear" x1="155.5" y1="104" x2="154" y2="20.5" gradientUnits="userSpaceOnUse">
<stop stop-color="#73F5B7"/>
<stop offset="1" stop-color="#73C6F5"/>
</linearGradient>
<linearGradient id="paint3_linear" x1="120.594" y1="71.0001" x2="205.082" y2="-0.471887" gradientUnits="userSpaceOnUse">
<stop stop-color="#5CC4FF"/>
<stop offset="1" stop-color="#73F5B7"/>
</linearGradient>
<linearGradient id="paint4_linear" x1="20.5" y1="105" x2="20.5" y2="175" gradientUnits="userSpaceOnUse">
<stop stop-color="#5CC4FF"/>
<stop offset="1" stop-color="#73F5B7"/>
</linearGradient>
<linearGradient id="paint5_linear" x1="230" y1="105" x2="230" y2="175" gradientUnits="userSpaceOnUse">
<stop stop-color="#73F5B7"/>
<stop offset="1" stop-color="#5CC4FF"/>
</linearGradient>
</defs>
</svg>
