<?xml version="1.0" encoding="iso-8859-1"?>
<!-- Generator: Adobe Illustrator 19.0.0, SVG Export Plug-In . SVG Version: 6.00 Build 0)  -->
<svg version="1.1" id="Capa_1" xmlns="http://www.w3.org/2000/svg" xmlns:xlink="http://www.w3.org/1999/xlink" x="0px" y="0px"
	 viewBox="0 0 485 485" style="enable-background:new 0 0 485 485;" xml:space="preserve">
<g>
	<path d="M485,231.083L378.07,95.02h-52.668v-60H60.379v60H0v295.402h51.284c1.811,33.147,29.344,59.559,62.935,59.559
		s61.124-26.412,62.935-59.559h130.693c1.811,33.147,29.344,59.559,62.935,59.559s61.124-26.412,62.935-59.559H485V231.083z
		 M90.379,65.02h205.023v30H90.379V65.02z M176.935,125.02v30h-58.467v-30H176.935z M265.402,185.02v78.891H30V185.02H265.402z
		 M265.402,155.02h-58.468v-30h58.468V155.02z M88.468,125.02v30H30v-30H88.468z M114.219,419.98
		c-18.216,0-33.035-14.819-33.035-33.035s14.819-33.035,33.035-33.035s33.035,14.819,33.035,33.035S132.435,419.98,114.219,419.98z
		 M370.781,419.98c-18.216,0-33.035-14.819-33.035-33.035s14.819-33.035,33.035-33.035s33.035,14.819,33.035,33.035
		S388.997,419.98,370.781,419.98z M455,360.422h-27.055c-10.034-21.539-31.877-36.512-57.163-36.512s-47.129,14.973-57.163,36.512
		H171.382c-10.034-21.539-31.877-36.512-57.163-36.512s-47.129,14.973-57.163,36.512H30V293.91h265.402V125.02h68.089L455,241.46
		V360.422z"/>
</g>
<g>
</g>
<g>
</g>
<g>
</g>
<g>
</g>
<g>
</g>
<g>
</g>
<g>
</g>
<g>
</g>
<g>
</g>
<g>
</g>
<g>
</g>
<g>
</g>
<g>
</g>
<g>
</g>
<g>
</g>
</svg>
