<svg id="bold" enable-background="new 0 0 24 24" height="512" viewBox="0 0 24 24" width="512" xmlns="http://www.w3.org/2000/svg"><path d="m12 5c-3.309 0-6 2.691-6 6s2.691 6 6 6 6-2.691 6-6-2.691-6-6-6zm-.125 5.25h.25c1.034 0 1.875.841 1.875 1.875 0 .814-.524 1.501-1.25 1.76v.365c0 .414-.336.75-.75.75s-.75-.336-.75-.75v-.25h-.5c-.414 0-.75-.336-.75-.75s.336-.75.75-.75h1.375c.207 0 .375-.168.375-.375s-.168-.375-.375-.375h-.25c-1.034 0-1.875-.841-1.875-1.875 0-.814.524-1.501 1.25-1.76v-.365c0-.414.336-.75.75-.75s.75.336.75.75v.25h.5c.414 0 .75.336.75.75s-.336.75-.75.75h-1.375c-.207 0-.375.168-.375.375s.168.375.375.375z"/><path d="m22.272 10.272c-.414 0-.75.336-.75.75 0 4.485-3.122 8.246-7.304 9.25v-.935c0-.666-.807-1.003-1.28-.53l-1.957 1.956c-.293.293-.293.768 0 1.061l1.957 1.956c.469.469 1.28.141 1.28-.53v-1.431c5.018-1.029 8.804-5.479 8.804-10.797 0-.414-.336-.75-.75-.75z"/><path d="m8.824 19.989c-3.796-1.33-6.346-4.933-6.346-8.967 0-1.142.206-2.251.593-3.293l.899.518c.575.333 1.272-.196 1.1-.844l-.76-2.834c-.108-.398-.51-.634-.92-.53l-2.835.759c-.645.173-.756 1.042-.18 1.374l1.379.796c-.508 1.276-.775 2.644-.775 4.054 0 4.669 2.953 8.842 7.35 10.383.397.137.82-.073.956-.46.136-.391-.07-.819-.461-.956z"/><path d="m23.056 4.917-1.613.432c-1.963-3.243-5.541-5.349-9.443-5.349-2.512 0-4.866.826-6.809 2.386-.323.26-.374.732-.115 1.055.261.324.732.374 1.055.115 1.674-1.345 3.703-2.056 5.869-2.056 3.222 0 6.185 1.664 7.921 4.256l-.874.234c-.644.173-.758 1.04-.181 1.374l2.541 1.468c.173.1.376.126.569.075.191-.052.355-.177.455-.35l1.469-2.541c.331-.575-.194-1.271-.844-1.099z"/></svg>