<svg width="40" height="40" viewBox="0 0 40 40" fill="none" xmlns="http://www.w3.org/2000/svg">
<g clip-path="url(#clip0)">
<path d="M12.5016 36.2583C27.5968 36.2583 35.8515 23.7525 35.8515 12.9083C35.8515 12.5531 35.8442 12.1994 35.8283 11.8476C37.4305 10.6891 38.8233 9.24348 39.922 7.59797C38.4516 8.25166 36.869 8.69142 35.2091 8.89009C36.9035 7.87385 38.2044 6.26679 38.8178 4.35089C37.2321 5.29084 35.4761 5.97382 33.6066 6.34278C32.1091 4.74762 29.9769 3.75 27.616 3.75C23.0842 3.75 19.4089 7.42524 19.4089 11.9556C19.4089 12.5998 19.4809 13.226 19.6216 13.8269C12.8009 13.4836 6.75264 10.2182 2.70539 5.25238C2.00074 6.46515 1.59424 7.87415 1.59424 9.37745C1.59424 12.2244 3.04322 14.7382 5.24629 16.2085C3.89985 16.167 2.6352 15.7974 1.52954 15.1822C1.52832 15.2167 1.52832 15.2503 1.52832 15.2869C1.52832 19.2615 4.357 22.58 8.1125 23.3319C7.42281 23.5196 6.6971 23.6206 5.9485 23.6206C5.42054 23.6206 4.90602 23.5688 4.40583 23.4726C5.45076 26.7334 8.48055 29.1062 12.0725 29.1727C9.26363 31.3743 5.72511 32.6856 1.87958 32.6856C1.21796 32.6856 0.564271 32.6478 -0.078125 32.5721C3.55378 34.9 7.86684 36.2586 12.5019 36.2586" fill="#1DA1F2"/>
</g>
<defs>
<clipPath id="clip0">
<rect width="40" height="40" fill="white"/>
</clipPath>
</defs>
</svg>
