<svg width="50" height="50" viewBox="0 0 50 50" fill="none" xmlns="http://www.w3.org/2000/svg">
<path d="M25 0C38.75 0 50 11.25 50 25C50 38.75 38.75 50 25 50C11.25 50 0 38.7498 0 25C0 11.2502 11.25 0 25 0Z" fill="#DD4B39"/>
<path d="M37.6561 20.7811V23.5937H40.4685V26.4062H37.6561V29.2188H34.8435V26.4062H32.031V23.5937H34.8435V20.7811H37.6561Z" fill="white"/>
<path d="M12.3436 32.0312C8.59357 28.2812 8.59357 21.7186 12.4998 17.9688C15.3123 15.1563 19.3747 14.5313 22.9685 15.9375L24.3747 16.7188L25.9372 17.8126L23.4372 20.3126L22.4998 19.6877C20.3123 18.2815 17.1872 18.5939 15.1561 20.6252C12.8123 22.969 12.6561 27.1877 15.1561 29.6877C17.4999 32.1877 21.7187 32.1877 23.9061 29.6877C24.531 29.0628 25.1561 28.1252 25.3123 27.1877V26.8752H19.6874V23.7502H28.5936L28.7498 24.5315V26.719C28.5936 28.7502 27.8123 30.7815 26.4059 32.1877C22.6561 35.7812 16.0936 35.7812 12.3436 32.0312Z" fill="white"/>
</svg>
